<svg fill="none" height="201" viewBox="0 0 697 201" width="697" xmlns="http://www.w3.org/2000/svg">
    <g clip-path="url(#clip0_101_3)">
        <rect height="165.014" rx="38.5" stroke="#EBEBEB" stroke-width="19" width="166" x="9.5"
            y="26.486" />
        <rect fill="#EBEBEB" height="16.9859" width="12.0962" x="37" y="3" />
        <rect fill="#EBEBEB" height="30" rx="10" width="29" x="115" y="58" />
        <rect fill="#EBEBEB" height="30" rx="10" width="29" x="43" y="58" />
        <rect fill="#EBEBEB" height="16.9859" width="11.3846" x="139" y="2" />
        <rect fill="#EBEBEB" height="38" rx="7.5" width="15" x="130" y="125" />
        <rect fill="#EBEBEB" height="16" rx="8" width="40" x="105" y="147" />
        <path
            d="M259.562 41.3828C265.309 41.3828 270.646 42.109 275.571 43.5615C280.56 45.014 284.886 47.1927 288.549 50.0977C292.275 52.9395 295.18 56.5075 297.264 60.8018C299.411 65.096 300.484 70.1165 300.484 75.8633V134.594C300.484 139.52 299.948 143.877 298.874 147.666C297.8 151.392 296.38 154.644 294.611 157.423C292.906 160.138 290.949 162.475 288.738 164.433C286.528 166.327 284.286 167.874 282.013 169.074C276.582 171.979 270.424 173.621 263.541 174H232.092C228.492 174 225.714 173.4 223.756 172.2C221.798 170.937 220.377 169.295 219.493 167.274C218.609 165.19 218.072 162.854 217.883 160.265C217.757 157.675 217.693 154.992 217.693 152.213V62.9805C217.693 60.265 217.757 57.6126 217.883 55.0234C218.072 52.4342 218.609 50.1292 219.493 48.1084C220.377 46.0876 221.798 44.4772 223.756 43.2773C225.714 42.0143 228.492 41.3828 232.092 41.3828H259.562ZM246.49 63.5488V151.455H258.805C261.52 151.329 263.951 150.697 266.099 149.561C266.983 149.118 267.867 148.519 268.751 147.761C269.635 147.003 270.424 146.119 271.119 145.108C271.814 144.035 272.351 142.772 272.729 141.319C273.172 139.867 273.393 138.193 273.393 136.299V80.4102C273.393 78.3262 273.172 76.4948 272.729 74.916C272.351 73.2741 271.814 71.8532 271.119 70.6533C270.424 69.4535 269.635 68.443 268.751 67.6221C267.867 66.8011 266.983 66.138 266.099 65.6328C263.951 64.4329 261.52 63.7383 258.805 63.5488H246.49ZM384.874 41.3828C387.4 41.3828 389.958 41.4775 392.547 41.667C395.136 41.8564 397.473 42.3932 399.557 43.2773C401.641 44.1615 403.346 45.5192 404.672 47.3506C405.998 49.1188 406.661 51.6133 406.661 54.834C406.661 58.0547 405.998 60.5807 404.672 62.4121C403.346 64.1803 401.641 65.5065 399.557 66.3906C397.473 67.2747 395.136 67.8115 392.547 68.001C389.958 68.1904 387.4 68.2852 384.874 68.2852H362.329V94.0508H374.265C376.791 94.0508 379.317 94.1455 381.843 94.335C384.432 94.4613 386.706 94.9665 388.663 95.8506C390.684 96.6715 392.326 97.9661 393.589 99.7344C394.852 101.439 395.484 103.839 395.484 106.934C395.484 110.091 394.852 112.522 393.589 114.228C392.326 115.933 390.684 117.227 388.663 118.111C386.706 118.932 384.432 119.438 381.843 119.627C379.317 119.753 376.791 119.816 374.265 119.816H362.329V147.098H384.874C387.4 147.098 389.958 147.192 392.547 147.382C395.136 147.571 397.473 148.108 399.557 148.992C401.641 149.813 403.346 151.139 404.672 152.971C405.998 154.739 406.661 157.202 406.661 160.359C406.661 163.643 405.967 166.201 404.577 168.032C403.251 169.864 401.546 171.221 399.462 172.105C397.378 172.99 395.042 173.526 392.452 173.716C389.863 173.905 387.337 174 384.874 174H347.742C344.205 174 341.458 173.368 339.5 172.105C337.606 170.842 336.216 169.201 335.332 167.18C334.448 165.096 333.911 162.759 333.722 160.17C333.596 157.581 333.533 154.928 333.533 152.213V63.1699C333.533 60.4544 333.596 57.8021 333.722 55.2129C333.911 52.6237 334.448 50.3187 335.332 48.2979C336.216 46.2139 337.606 44.5404 339.5 43.2773C341.458 42.0143 344.205 41.3828 347.742 41.3828H384.874ZM495.977 41.3828C498.503 41.3828 501.029 41.4775 503.555 41.667C506.145 41.8564 508.481 42.3932 510.565 43.2773C512.649 44.1615 514.323 45.5192 515.586 47.3506C516.912 49.1188 517.575 51.6133 517.575 54.834C517.575 57.9915 516.912 60.486 515.586 62.3174C514.323 64.0856 512.649 65.4118 510.565 66.2959C508.481 67.18 506.145 67.7484 503.555 68.001C501.029 68.1904 498.503 68.2852 495.977 68.2852H486.315V152.402C486.315 155.118 486.22 157.77 486.031 160.359C485.905 162.949 485.399 165.254 484.515 167.274C483.631 169.295 482.21 170.937 480.253 172.2C478.295 173.4 475.516 174 471.917 174C468.317 174 465.538 173.4 463.581 172.2C461.623 170.937 460.202 169.295 459.318 167.274C458.434 165.254 457.897 162.949 457.708 160.359C457.581 157.77 457.518 155.118 457.518 152.402V68.2852H447.856C445.33 68.2852 442.773 68.1904 440.183 68.001C437.657 67.7484 435.352 67.18 433.268 66.2959C431.184 65.4118 429.479 64.0856 428.153 62.3174C426.89 60.486 426.259 57.9915 426.259 54.834C426.259 51.6133 426.89 49.1188 428.153 47.3506C429.479 45.5192 431.184 44.1615 433.268 43.2773C435.352 42.3932 437.657 41.8564 440.183 41.667C442.773 41.4775 445.33 41.3828 447.856 41.3828H495.977ZM539.824 78.8945C539.824 72.832 540.708 67.6852 542.477 63.4541C544.245 59.1598 546.487 55.5918 549.202 52.75C551.981 49.9082 555.012 47.6979 558.296 46.1191C561.643 44.4772 564.864 43.2458 567.958 42.4248C571.116 41.6038 573.957 41.0986 576.483 40.9092C579.01 40.7197 580.872 40.625 582.072 40.625H585.293C586.493 40.625 588.356 40.7197 590.882 40.9092C593.408 41.0986 596.218 41.6038 599.313 42.4248C602.407 43.2458 605.596 44.4772 608.88 46.1191C612.227 47.6979 615.227 49.9082 617.879 52.75C620.594 55.5918 622.805 59.1598 624.51 63.4541C626.278 67.6852 627.162 72.832 627.162 78.8945V135.541C627.162 141.793 626.278 147.098 624.51 151.455C622.805 155.812 620.594 159.444 617.879 162.349C615.227 165.254 612.227 167.559 608.88 169.264C605.596 170.906 602.407 172.137 599.313 172.958C596.218 173.779 593.408 174.284 590.882 174.474C588.356 174.663 586.493 174.758 585.293 174.758H582.072C580.872 174.758 579.01 174.663 576.483 174.474C573.957 174.284 571.116 173.779 567.958 172.958C564.864 172.137 561.643 170.906 558.296 169.264C555.012 167.559 551.981 165.254 549.202 162.349C546.487 159.444 544.245 155.812 542.477 151.455C540.708 147.098 539.824 141.793 539.824 135.541V78.8945ZM571.274 139.141C571.4 141.477 571.937 143.53 572.884 145.298C573.705 146.877 574.936 148.298 576.578 149.561C578.283 150.824 580.683 151.455 583.777 151.455C586.809 151.455 589.145 150.824 590.787 149.561C592.429 148.298 593.661 146.877 594.482 145.298C595.366 143.53 595.902 141.477 596.092 139.141V77.3789C595.902 75.1055 595.366 73.0531 594.482 71.2217C593.661 69.7061 592.429 68.3167 590.787 67.0537C589.145 65.7275 586.809 65.0645 583.777 65.0645C580.683 65.0645 578.283 65.7275 576.578 67.0537C574.936 68.3167 573.705 69.7061 572.884 71.2217C571.937 73.0531 571.4 75.1055 571.274 77.3789V139.141Z"
            fill="#EBEBEB" />
        <path
            d="M653.392 19.2383C653.978 19.2383 654.563 19.2603 655.149 19.3042C655.75 19.3481 656.292 19.4727 656.775 19.6777C657.259 19.8828 657.647 20.1978 657.94 20.6226C658.248 21.0327 658.401 21.6113 658.401 22.3584C658.401 23.0908 658.248 23.6694 657.94 24.0942C657.647 24.5044 657.259 24.812 656.775 25.0171C656.292 25.2222 655.75 25.354 655.149 25.4126C654.563 25.4565 653.978 25.4785 653.392 25.4785H651.15V44.9902C651.15 45.6201 651.128 46.2354 651.084 46.8359C651.055 47.4365 650.938 47.9712 650.733 48.4399C650.528 48.9087 650.198 49.2896 649.744 49.5825C649.29 49.8608 648.646 50 647.811 50C646.976 50 646.331 49.8608 645.877 49.5825C645.423 49.2896 645.093 48.9087 644.888 48.4399C644.683 47.9712 644.559 47.4365 644.515 46.8359C644.485 46.2354 644.471 45.6201 644.471 44.9902V25.4785H642.229C641.644 25.4785 641.05 25.4565 640.45 25.4126C639.864 25.354 639.329 25.2222 638.846 25.0171C638.362 24.812 637.967 24.5044 637.659 24.0942C637.366 23.6694 637.22 23.0908 637.22 22.3584C637.22 21.6113 637.366 21.0327 637.659 20.6226C637.967 20.1978 638.362 19.8828 638.846 19.6777C639.329 19.4727 639.864 19.3481 640.45 19.3042C641.05 19.2603 641.644 19.2383 642.229 19.2383H653.392ZM678.504 42.8809C678.079 42.8809 677.713 42.8003 677.405 42.6392C677.112 42.478 676.856 42.2729 676.636 42.0239C676.416 41.7749 676.226 41.4966 676.065 41.189C675.918 40.8813 675.794 40.5811 675.691 40.2881L671.516 28.2471H670.945V46.5723C670.945 47.041 670.916 47.4805 670.857 47.8906C670.799 48.3008 670.667 48.667 670.462 48.9893C670.271 49.2969 669.978 49.5459 669.583 49.7363C669.202 49.9121 668.675 50 668.001 50C667.239 50 666.638 49.9121 666.199 49.7363C665.76 49.5459 665.43 49.2969 665.21 48.9893C664.991 48.667 664.851 48.3008 664.793 47.8906C664.734 47.4805 664.705 47.041 664.705 46.5723V24.248C664.705 23.6182 664.72 23.0029 664.749 22.4023C664.793 21.8018 664.917 21.2671 665.122 20.7983C665.327 20.3296 665.65 19.9561 666.089 19.6777C666.543 19.3848 667.18 19.2383 668.001 19.2383H670.989C671.487 19.2383 671.905 19.2603 672.242 19.3042C672.593 19.3335 672.915 19.458 673.208 19.6777C673.501 19.8828 673.787 20.2197 674.065 20.6885C674.358 21.1572 674.673 21.8237 675.01 22.688C675.362 23.5376 675.764 24.6289 676.219 25.9619C676.673 27.2803 677.229 28.9062 677.888 30.8398L678.46 32.5977H678.987L679.69 30.4004C680.291 28.5547 680.804 26.9946 681.228 25.7202C681.653 24.4458 682.027 23.3984 682.349 22.5781C682.671 21.7432 682.957 21.106 683.206 20.6665C683.47 20.2124 683.741 19.8828 684.019 19.6777C684.312 19.458 684.627 19.3335 684.964 19.3042C685.301 19.2603 685.711 19.2383 686.194 19.2383H689.402C690.222 19.2383 690.852 19.3848 691.292 19.6777C691.746 19.9561 692.075 20.3296 692.281 20.7983C692.486 21.2671 692.603 21.8018 692.632 22.4023C692.676 23.0029 692.698 23.6182 692.698 24.248V46.5723C692.698 47.041 692.669 47.4805 692.61 47.8906C692.552 48.3008 692.412 48.667 692.193 48.9893C691.973 49.2969 691.643 49.5459 691.204 49.7363C690.764 49.9121 690.164 50 689.402 50C688.728 50 688.194 49.9121 687.798 49.7363C687.417 49.5459 687.124 49.2969 686.919 48.9893C686.729 48.667 686.604 48.3008 686.546 47.8906C686.487 47.4805 686.458 47.041 686.458 46.5723V28.2471H685.843L681.712 40.2881C681.595 40.5811 681.463 40.8813 681.316 41.189C681.17 41.4966 680.987 41.7749 680.767 42.0239C680.547 42.2729 680.291 42.478 679.998 42.6392C679.705 42.8003 679.353 42.8809 678.943 42.8809H678.504Z"
            fill="white" />
    </g>
    <defs>
        <clipPath id="clip0_101_3">
            <rect fill="white" height="201" width="697" />
        </clipPath>
    </defs>
</svg>
