<?xml version="1.0" standalone="no"?><!DOCTYPE svg PUBLIC "-//W3C//DTD SVG 20010904//EN"
    "http://www.w3.org/TR/2001/REC-SVG-20010904/DTD/svg10.dtd">
<svg height="1024.000000pt" preserveAspectRatio="xMidYMid meet" version="1.0"
    viewBox="0 0 1024.000000 1024.000000" width="1024.000000pt" xmlns="http://www.w3.org/2000/svg">
    <metadata>
        Created by potrace 1.14, written by Peter Selinger 2001-2017
    </metadata>
    <g fill="#000000" stroke="none"
        transform="translate(0.000000,1024.000000) scale(0.100000,-0.100000)">
        <path d="M0 5120 l0 -5120 5120 0 5120 0 0 5120 0 5120 -5120 0 -5120 0 0
-5120z m6968 2865 l3 -270 72 -23 c161 -51 365 -172 508 -299 257 -230 414
-503 491 -853 l23 -105 0 -1580 c0 -1500 -1 -1585 -19 -1680 -58 -312 -204
-591 -426 -814 -214 -215 -472 -353 -790 -423 l-105 -23 -1595 0 c-1514 0
-1600 1 -1695 19 -312 58 -591 204 -814 426 -215 214 -353 472 -423 790 l-23
105 0 1590 0 1590 23 103 c49 222 120 393 231 558 194 288 462 491 796 603
l120 40 3 241 2 240 195 0 195 0 0 -220 0 -220 1430 0 1430 0 0 233 c0 129 3
237 7 241 4 3 86 5 182 4 l176 -3 3 -270z" />
        <path d="M3520 7155 c-359 -73 -644 -353 -724 -712 -14 -64 -16 -233 -16
-1601 l0 -1529 24 -94 c86 -341 346 -597 688 -679 81 -19 121 -20 1629 -20
l1546 0 94 24 c341 86 597 346 679 688 19 81 20 121 20 1606 0 1676 3 1590
-61 1752 -118 295 -388 514 -703 569 -95 17 -3092 13 -3176 -4z m758 -714 c68
-31 144 -113 169 -183 15 -45 18 -85 18 -273 l0 -220 -33 -67 c-37 -76 -82
-120 -162 -157 -54 -25 -60 -26 -260 -26 -172 0 -213 3 -257 18 -70 24 -145
93 -180 165 l-28 57 0 235 c0 233 0 236 26 290 29 61 83 121 132 147 74 38
107 42 317 40 192 -2 208 -4 258 -26z m2304 -4 c70 -34 131 -101 158 -173 18
-49 20 -78 20 -267 0 -118 -5 -230 -11 -252 -17 -63 -69 -133 -131 -175 -78
-52 -153 -64 -367 -58 -151 4 -171 6 -221 30 -66 30 -129 91 -161 156 -23 44
-24 59 -27 275 -3 190 -1 236 13 277 32 95 103 168 198 202 45 16 80 18 262
16 207 -3 211 -3 267 -31z m100 -2143 c23 -16 56 -49 73 -73 l30 -43 3 -431
c3 -480 3 -482 -62 -549 -73 -75 -57 -73 -566 -73 -448 0 -456 0 -496 22 -94
50 -151 151 -141 251 6 70 25 110 76 161 66 66 95 71 428 71 l293 0 0 262 c0
246 1 264 21 305 24 49 80 101 130 120 19 7 64 11 101 10 56 -2 74 -8 110 -33z" />
    </g>
</svg>
